<?xml version="1.0" standalone="no"?>
<!DOCTYPE svg PUBLIC "-//W3C//DTD SVG 20010904//EN"
 "http://www.w3.org/TR/2001/REC-SVG-20010904/DTD/svg10.dtd">
<svg version="1.0" xmlns="http://www.w3.org/2000/svg"
 width="1024.000000pt" height="1024.000000pt" viewBox="0 0 1024.000000 1024.000000"
 preserveAspectRatio="xMidYMid meet">
<metadata>
Created by potrace 1.14, written by Peter Selinger 2001-2017
</metadata>
<g transform="translate(0.000000,1024.000000) scale(0.100000,-0.100000)"
fill="#000000" stroke="none">
<path d="M7925 9441 c-3 -5 -2 -12 3 -15 5 -3 9 1 9 9 0 17 -3 19 -12 6z"/>
<path d="M7970 9442 c0 -7 -4 -11 -9 -8 -5 3 -12 -1 -15 -9 -4 -13 -10 -14
-26 -5 -16 9 -22 8 -26 -5 -5 -12 -9 -13 -20 -4 -11 9 -14 8 -14 -2 0 -11 -2
-11 -10 1 -5 8 -10 10 -10 5 0 -6 -9 -11 -19 -11 -11 0 -17 4 -15 8 3 4 0 8
-5 8 -6 0 -11 -4 -11 -9 0 -6 -9 -8 -20 -6 -13 3 -18 0 -14 -7 5 -7 1 -9 -9
-5 -10 4 -16 2 -14 -6 1 -7 -4 -11 -11 -9 -7 1 -23 -3 -35 -10 -20 -10 -21
-10 -9 5 12 14 10 15 -17 4 -17 -6 -26 -14 -20 -18 17 -10 -3 -17 -48 -15 -34
1 -40 -1 -38 -16 3 -11 -1 -15 -11 -11 -8 3 -14 0 -14 -7 0 -10 -3 -10 -15 0
-13 11 -18 8 -17 -10 0 -3 -6 -11 -14 -18 -10 -9 -14 -9 -14 -1 0 8 -5 7 -17
-2 -15 -12 -16 -12 -8 1 4 8 -4 2 -19 -13 -23 -25 -29 -27 -43 -15 -12 9 -15
9 -9 1 4 -7 2 -21 -4 -30 -11 -17 -11 -17 -6 1 6 16 4 17 -9 6 -8 -7 -15 -20
-15 -29 0 -14 -2 -14 -10 -1 -8 13 -10 13 -10 -2 0 -9 -5 -20 -12 -24 -7 -4
-8 -3 -4 4 4 7 2 12 -3 12 -6 0 -11 -5 -11 -11 0 -5 -5 -7 -12 -3 -8 5 -9 2
-5 -10 4 -10 3 -15 -3 -11 -6 3 -10 1 -10 -6 0 -8 -4 -8 -16 1 -8 8 -14 9 -13
4 5 -25 -2 -43 -15 -38 -9 3 -13 -1 -13 -13 1 -12 -4 -17 -16 -16 -15 1 -17
-4 -12 -24 5 -23 5 -24 -10 -9 -21 20 -20 20 -22 -5 -1 -12 -7 -27 -14 -33 -9
-8 -10 -8 -5 2 4 6 2 12 -3 12 -10 0 -16 -21 -12 -42 0 -4 -6 -5 -15 -1 -10 4
-17 -2 -21 -17 -4 -16 -8 -18 -14 -8 -6 9 -9 6 -9 -10 0 -13 -4 -20 -10 -17
-9 6 -14 -7 -11 -27 0 -4 -6 -5 -14 -2 -10 4 -18 -3 -25 -20 -11 -29 -22 -36
-14 -8 5 16 5 16 -6 -1 -6 -9 -8 -22 -5 -27 3 -6 -1 -10 -9 -10 -9 0 -16 -4
-16 -10 0 -5 -6 -7 -14 -4 -9 3 -17 -3 -21 -15 -3 -12 -11 -21 -16 -21 -5 0
-8 -3 -6 -7 1 -5 -2 -9 -8 -10 -10 -2 -29 -43 -26 -56 1 -5 -3 -6 -9 -2 -8 5
-7 11 1 21 7 9 8 14 1 14 -13 0 -33 -56 -24 -66 4 -3 -4 -1 -18 6 -24 13 -24
12 -10 -6 8 -10 11 -16 6 -12 -10 8 -51 -11 -42 -19 3 -3 1 -14 -5 -24 -8 -16
-6 -19 10 -19 15 0 19 -5 16 -22 -3 -16 -2 -19 7 -10 15 15 40 -11 32 -35 -4
-11 -3 -14 3 -6 6 8 13 8 27 -3 11 -8 16 -14 10 -14 -5 0 -1 -5 9 -11 9 -6 15
-14 12 -20 -4 -5 2 -6 11 -2 12 4 15 3 10 -5 -4 -7 -1 -12 9 -12 9 0 13 -4 10
-10 -3 -5 -1 -10 5 -10 6 0 8 -5 4 -12 -6 -9 -3 -9 9 0 14 12 16 11 12 -8 -3
-16 0 -20 10 -16 14 5 20 -6 15 -29 -1 -5 2 -7 6 -3 4 5 13 -1 21 -12 8 -11
24 -20 36 -21 12 0 17 -3 10 -6 -9 -3 -7 -11 7 -25 11 -12 17 -24 15 -29 -3
-4 4 -5 15 -2 16 4 18 1 15 -17 -3 -17 -1 -19 9 -11 16 14 42 -12 30 -30 -4
-7 -3 -10 2 -7 11 7 35 -17 26 -26 -3 -4 1 -4 10 -1 9 4 19 1 24 -6 4 -8 3
-10 -4 -5 -7 4 -12 2 -12 -3 0 -6 9 -11 21 -11 11 0 17 -4 14 -10 -3 -5 1 -10
10 -10 9 0 13 -4 10 -10 -6 -9 8 -14 27 -11 5 0 7 -2 7 -7 -3 -19 2 -33 11
-27 10 6 15 -9 10 -30 -1 -5 2 -7 6 -3 4 5 14 -1 22 -13 8 -11 20 -18 28 -15
7 3 16 0 20 -6 5 -7 2 -8 -6 -3 -8 5 -11 3 -8 -6 3 -8 14 -19 26 -25 12 -6 19
-14 15 -17 -6 -6 11 -11 29 -8 5 0 7 -2 7 -7 -3 -19 2 -33 11 -27 9 6 14 -8
11 -28 -1 -5 3 -6 9 -2 5 3 10 0 10 -7 0 -9 3 -9 10 2 7 12 10 8 10 -15 0 -23
3 -27 10 -15 7 11 10 11 10 2 0 -7 4 -10 10 -7 6 3 7 -1 4 -9 -4 -10 3 -20 20
-27 14 -7 26 -16 26 -21 0 -5 6 -6 13 -2 7 5 6 0 -3 -11 -9 -11 -10 -16 -2
-11 6 4 12 2 12 -3 0 -6 7 -11 16 -11 11 0 14 -5 10 -17 -4 -10 -4 -15 -1 -11
7 7 61 -43 57 -54 -1 -4 5 -5 13 -2 9 4 18 -3 25 -17 12 -32 38 -64 45 -57 3
3 -1 11 -10 18 -8 7 -15 17 -15 23 0 6 11 -4 25 -23 13 -18 22 -38 18 -43 -3
-6 -1 -7 5 -3 7 4 12 1 12 -6 0 -9 3 -9 10 2 8 13 10 12 11 -5 1 -11 1 -24 0
-28 -1 -5 8 -6 19 -2 15 5 18 3 14 -9 -4 -10 3 -20 20 -27 14 -7 26 -16 26
-21 0 -5 6 -6 13 -2 8 5 7 2 -2 -9 -8 -10 -11 -20 -7 -24 3 -3 6 -1 6 5 0 9 5
9 20 0 11 -7 18 -19 15 -26 -3 -9 1 -11 15 -7 15 5 18 2 15 -13 -2 -11 6 -24
18 -32 21 -12 21 -12 7 6 -14 18 -14 18 3 5 9 -7 17 -18 17 -23 0 -13 26 -38
40 -38 6 0 8 -4 5 -10 -3 -5 1 -10 10 -10 9 0 13 -4 10 -10 -3 -5 0 -10 8 -10
8 0 18 -7 21 -16 3 -8 11 -12 17 -8 8 4 9 3 5 -4 -4 -7 -2 -12 5 -12 7 0 10
-3 6 -6 -7 -8 12 -28 36 -37 9 -3 17 -11 17 -17 0 -5 14 -25 32 -43 17 -17 28
-26 23 -18 -6 10 -4 12 4 6 7 -4 11 -15 8 -24 -3 -12 3 -17 17 -19 17 -1 18 1
6 9 -13 9 -13 10 0 6 8 -2 15 -13 14 -24 -1 -16 4 -19 20 -16 14 3 17 2 8 -4
-9 -7 -6 -14 12 -30 13 -12 27 -19 30 -16 6 6 10 -22 7 -41 -1 -5 4 -4 12 2
19 16 40 -8 31 -34 -3 -11 -2 -15 3 -9 11 13 36 18 28 6 -3 -6 3 -18 14 -28
11 -9 18 -20 15 -25 -3 -4 3 -5 12 -1 12 4 15 3 10 -5 -4 -7 -1 -12 8 -12 8 0
18 -9 21 -20 3 -11 11 -20 16 -20 6 0 7 -5 3 -12 -5 -8 -2 -9 9 -5 16 6 22 -3
18 -26 -1 -5 3 -6 9 -2 5 3 10 1 10 -4 0 -6 7 -11 16 -11 8 0 13 -4 10 -9 -3
-5 5 -8 18 -7 16 1 22 6 18 15 -4 10 -1 12 8 6 10 -6 12 -4 7 8 -3 9 -2 16 3
14 5 -1 16 7 25 18 9 11 13 14 9 6 -5 -10 -3 -12 5 -7 9 6 9 11 1 21 -9 11 -6
13 15 11 22 -3 23 -1 13 12 -9 10 -9 13 -1 9 6 -4 14 -1 16 5 4 10 8 9 17 -2
9 -12 10 -10 5 9 -5 18 -4 22 6 16 9 -6 11 -3 5 10 -6 16 -4 16 11 4 11 -9 14
-10 9 -1 -4 6 -3 12 2 12 5 0 14 11 20 25 6 14 18 25 26 25 10 0 12 7 9 23 -5
22 -5 22 11 2 10 -11 14 -14 11 -7 -8 15 49 74 61 63 4 -3 4 3 0 13 -6 17 -5
17 10 5 16 -13 16 -12 6 8 -9 16 -9 24 0 29 6 4 8 3 5 -3 -4 -6 1 -14 10 -17
10 -4 14 -4 11 0 -9 9 10 44 23 44 6 0 8 -7 5 -16 -3 -9 -2 -12 5 -9 6 4 8 13
5 20 -2 7 5 25 17 39 25 29 47 36 26 9 -13 -16 -12 -17 3 -5 10 8 14 20 11 29
-5 12 -2 15 10 10 9 -3 16 -3 16 1 -3 20 2 33 11 27 6 -3 10 0 10 8 0 8 7 17
15 21 8 3 15 12 15 20 0 9 6 13 15 10 10 -4 13 0 10 15 -2 12 0 19 6 16 5 -4
9 -2 9 4 0 6 8 8 18 4 14 -5 14 -3 -3 11 -11 10 -14 14 -6 10 10 -5 13 -3 8 8
-8 22 3 30 22 16 9 -7 13 -8 9 -4 -4 5 -2 16 5 24 6 9 7 13 1 9 -6 -3 -11 0
-11 8 0 8 2 13 5 11 2 -2 12 3 22 12 16 13 17 19 7 31 -9 12 -9 13 1 7 7 -4
12 -2 12 8 0 8 6 19 14 23 8 4 14 17 13 28 -1 13 3 19 12 17 12 -3 12 -1 0 14
-12 15 -12 17 0 9 11 -6 13 -4 7 10 -5 15 -4 16 9 5 20 -16 19 -6 -1 14 -8 9
-11 16 -5 16 6 0 11 7 11 15 0 8 7 15 16 15 13 0 14 3 5 14 -9 11 -9 16 0 22
8 5 9 3 4 -6 -5 -9 -4 -11 4 -6 7 5 9 12 3 19 -14 20 -8 52 10 51 14 -1 15 3
7 24 -8 21 -7 23 4 13 12 -9 13 -6 9 16 -2 16 -10 34 -16 42 -9 12 -8 14 5 9
11 -4 15 0 15 16 -1 11 -5 24 -11 28 -6 5 -5 8 3 8 10 0 10 5 1 21 -6 12 -7
19 -2 16 5 -3 14 3 21 13 8 13 8 21 1 25 -7 5 -6 11 2 21 6 8 8 14 3 14 -5 0
-2 5 6 10 10 6 11 10 3 10 -7 0 -13 5 -13 11 0 5 4 8 8 5 10 -6 9 25 -2 42 -4
7 -2 12 6 12 10 0 10 2 -1 9 -11 7 -11 9 0 14 12 5 12 6 0 6 -11 1 -11 4 -1
16 10 12 10 18 0 30 -10 12 -10 15 1 15 11 0 11 2 -1 10 -13 9 -13 11 0 20 12
8 12 10 -5 10 -17 0 -17 2 -5 10 13 8 13 10 -1 10 -19 0 -32 57 -15 64 7 3 6
5 -1 5 -9 1 -10 8 -3 26 5 14 6 25 1 25 -4 0 -6 11 -4 25 4 19 2 24 -13 21
-17 -3 -19 3 -21 51 0 30 -7 60 -13 67 -10 8 -11 8 -5 -3 5 -9 4 -12 -3 -7 -6
3 -10 19 -8 34 1 15 -5 33 -14 40 -8 8 -10 11 -3 8 6 -4 15 -1 19 5 4 7 3 9
-4 5 -6 -3 -14 -1 -19 6 -8 13 -9 19 -12 39 0 6 -8 8 -17 5 -9 -3 -12 -2 -9 5
4 5 1 16 -5 24 -10 12 -10 15 1 15 10 0 11 2 1 13 -7 6 -17 13 -23 13 -5 1
-11 2 -14 3 -3 0 -1 10 5 20 7 14 7 22 -2 27 -7 5 -8 3 -3 -6 5 -9 4 -11 -3
-6 -7 4 -12 14 -12 22 0 8 -5 14 -11 14 -5 0 -7 5 -3 12 5 8 2 9 -10 5 -9 -4
-14 -3 -11 2 3 5 1 12 -4 16 -6 3 -7 13 -4 22 5 12 3 14 -7 8 -10 -6 -12 -4
-7 8 4 12 1 17 -9 17 -11 0 -14 6 -10 16 3 8 2 12 -3 9 -5 -3 -12 -1 -16 5 -4
6 -11 7 -17 4 -6 -4 -8 -2 -4 4 3 6 0 16 -9 24 -32 29 -43 37 -47 32 -3 -2 -5
3 -5 11 0 9 6 14 14 11 8 -3 11 -1 8 4 -4 6 -12 10 -18 9 -7 -1 -19 -1 -27 0
-13 1 -13 2 0 11 13 9 13 10 0 10 -9 0 -22 9 -30 21 -8 11 -36 37 -62 57 -27
20 -48 43 -48 52 0 13 -1 13 -10 0 -7 -11 -10 -12 -10 -2 0 9 -7 11 -19 7 -14
-4 -19 -1 -17 12 1 12 -5 17 -16 15 -10 -1 -23 6 -30 18 -7 11 -23 20 -37 20
-13 0 -22 3 -18 6 3 3 0 12 -6 19 -9 10 -15 10 -26 1 -12 -9 -13 -8 -7 3 7 10
3 12 -15 6 -17 -4 -20 -3 -10 3 16 12 3 21 -34 24 -16 2 -34 12 -42 25 -12 18
-19 20 -40 12 -21 -8 -29 -6 -44 10 -11 11 -28 18 -44 17 -14 -2 -25 1 -25 7
0 5 -7 4 -15 -3 -12 -10 -15 -9 -15 7 0 16 -6 20 -33 20 -18 -1 -39 3 -46 8
-9 5 -12 4 -8 -2 4 -6 -8 -9 -30 -8 -20 2 -40 9 -45 18 -5 10 -15 14 -25 10
-12 -5 -14 -3 -8 8 7 12 6 12 -7 1 -13 -10 -17 -10 -21 0 -4 10 -6 10 -6 1 -1
-15 -37 -18 -45 -4 -7 10 -25 9 -43 -2 -8 -5 -13 -3 -13 5 0 10 -2 10 -9 -1
-6 -9 -10 -10 -16 -2 -5 9 -10 9 -21 0 -11 -9 -14 -8 -14 2 0 12 -2 12 -9 1
-4 -8 -12 -14 -16 -14 -4 0 -12 6 -16 14 -7 10 -9 10 -9 0z m265 -22 c-3 -5
-12 -10 -18 -10 -7 0 -6 4 3 10 19 12 23 12 15 0z m740 -330 c3 -6 -1 -7 -9
-4 -18 7 -21 14 -7 14 6 0 13 -4 16 -10z m-2194 -447 c13 -16 12 -17 -3 -4
-10 7 -18 15 -18 17 0 8 8 3 21 -13z m2029 -1703 c0 -5 -5 -10 -11 -10 -5 0
-7 5 -4 10 3 6 8 10 11 10 2 0 4 -4 4 -10z"/>
<path d="M8790 9241 c0 -6 4 -13 10 -16 6 -3 7 1 4 9 -7 18 -14 21 -14 7z"/>
<path d="M6320 8225 c-1 -5 -2 -13 -1 -17 0 -5 -4 -8 -10 -8 -5 0 -7 -6 -3
-12 5 -8 0 -7 -11 2 -11 9 -16 10 -11 2 4 -7 1 -15 -8 -18 -9 -3 -13 -10 -10
-15 3 -5 -2 -9 -11 -9 -9 0 -13 -4 -10 -10 3 -5 1 -10 -5 -10 -7 0 -10 -7 -6
-17 5 -15 4 -15 -9 1 -15 19 -15 19 -15 -3 0 -17 -4 -21 -15 -17 -13 4 -14 2
-5 -14 6 -11 7 -20 3 -19 -22 4 -34 -2 -27 -13 5 -8 0 -7 -11 2 -17 14 -17 14
-7 -6 10 -18 8 -20 -19 -18 -23 2 -27 -1 -20 -10 13 -16 4 -27 -16 -19 -13 5
-13 2 -4 -15 10 -18 9 -20 -9 -17 -15 3 -20 -1 -18 -13 2 -9 -4 -17 -12 -17
-8 0 -14 -8 -14 -18 1 -9 -2 -15 -6 -12 -14 9 -57 -20 -52 -34 3 -9 0 -11 -8
-6 -10 6 -12 4 -7 -9 4 -11 3 -15 -4 -11 -5 4 -22 -5 -37 -20 -22 -22 -24 -28
-12 -36 11 -8 9 -9 -9 -4 -16 5 -21 4 -17 -4 4 -6 0 -11 -9 -11 -12 0 -15 -5
-11 -16 5 -14 4 -15 -9 -4 -13 11 -14 10 -10 -2 7 -19 -20 -42 -37 -32 -9 6
-9 3 1 -10 8 -9 10 -16 5 -15 -21 4 -34 -2 -34 -16 0 -8 -5 -15 -11 -15 -5 0
-8 -4 -5 -9 3 -5 -1 -12 -10 -15 -8 -3 -12 -2 -9 3 3 5 2 12 -3 15 -4 2 -9 -5
-9 -16 -1 -12 -10 -28 -20 -37 -11 -10 -13 -10 -5 -1 6 7 12 19 12 24 0 6 -7
1 -15 -11 -8 -12 -12 -30 -9 -40 3 -10 2 -14 -3 -8 -15 19 -32 15 -28 -6 3
-17 1 -19 -10 -9 -10 8 -15 8 -21 -1 -5 -8 -3 -9 6 -4 8 5 11 3 8 -6 -3 -8
-11 -13 -17 -12 -6 2 -11 -4 -11 -13 0 -8 -4 -13 -9 -9 -6 3 -15 -4 -21 -15
-6 -11 -15 -18 -19 -15 -5 2 -8 -3 -7 -12 0 -10 -5 -18 -13 -18 -8 0 -16 -6
-19 -14 -3 -9 0 -11 8 -6 8 5 11 4 6 -3 -4 -6 -14 -8 -23 -5 -12 5 -15 2 -10
-10 4 -12 2 -14 -10 -10 -11 4 -14 2 -9 -5 4 -7 1 -12 -8 -12 -9 0 -16 -5 -16
-11 0 -5 5 -7 12 -3 7 4 8 3 4 -4 -4 -6 -14 -8 -23 -5 -12 5 -15 2 -10 -10 3
-9 1 -19 -5 -23 -7 -4 -8 -3 -4 4 12 19 -1 14 -28 -12 -29 -26 -35 -46 -8 -25
14 11 14 10 -2 -9 -16 -18 -22 -20 -34 -9 -13 9 -14 9 -8 0 4 -8 2 -13 -4 -13
-7 0 -10 -7 -6 -15 3 -8 0 -14 -7 -12 -7 1 -11 -6 -11 -16 2 -15 -1 -16 -14
-5 -13 11 -15 10 -9 -5 4 -10 3 -16 -2 -13 -4 3 -17 -2 -27 -10 -10 -9 -14
-13 -7 -10 6 4 15 1 19 -5 4 -7 3 -9 -4 -5 -6 3 -13 2 -17 -4 -4 -6 -11 -7
-17 -4 -7 5 -9 1 -5 -9 6 -16 -15 -41 -26 -30 -7 6 -11 -12 -8 -30 1 -4 -9 -2
-21 4 -21 11 -22 11 -10 -4 12 -14 11 -16 -7 -12 -18 3 -20 1 -11 -15 9 -16 8
-18 -6 -13 -12 4 -15 3 -10 -6 4 -6 4 -11 -1 -10 -19 3 -33 -2 -33 -12 0 -5 6
-7 13 -3 8 5 7 2 -2 -9 -13 -16 -14 -16 -27 0 -13 16 -13 15 -5 -9 9 -24 8
-26 -13 -24 -13 2 -23 -3 -24 -11 -1 -7 -3 -20 -4 -27 -1 -8 -4 -15 -7 -14
-19 2 -31 -3 -26 -11 3 -5 1 -12 -5 -16 -6 -4 -7 -11 -4 -17 4 -7 2 -8 -5 -4
-6 4 -9 12 -6 17 4 5 1 9 -4 9 -6 0 -11 -7 -11 -16 0 -9 -5 -12 -12 -8 -8 5
-9 0 -5 -15 3 -13 3 -20 0 -17 -4 3 -13 0 -22 -7 -14 -11 -15 -10 -1 8 15 20
14 20 -8 1 -24 -21 -29 -32 -9 -20 9 6 9 5 0 -8 -7 -8 -10 -18 -6 -22 4 -4 0
-4 -10 0 -9 3 -14 11 -10 17 3 6 1 7 -6 3 -8 -6 -9 -12 -2 -20 14 -17 1 -29
-15 -15 -10 8 -12 6 -9 -10 2 -12 1 -20 -3 -18 -10 5 -42 -30 -34 -38 4 -4 0
-5 -8 -3 -9 2 -14 -4 -14 -15 2 -13 -1 -15 -11 -7 -8 7 -17 5 -29 -8 -9 -10
-13 -21 -10 -25 3 -3 -6 -13 -21 -23 -16 -10 -24 -23 -20 -32 4 -12 3 -12 -9
-3 -9 7 -17 8 -20 2 -3 -5 0 -12 6 -15 7 -4 3 -4 -10 -2 -19 4 -21 2 -11 -10
10 -12 10 -15 -2 -12 -8 2 -13 -3 -11 -11 3 -12 0 -12 -13 -1 -13 11 -14 10
-9 -5 6 -14 4 -16 -6 -10 -10 6 -12 4 -7 -8 4 -10 2 -16 -6 -14 -7 1 -11 -6
-11 -15 1 -11 -4 -14 -14 -11 -11 5 -13 3 -7 -8 7 -12 6 -12 -7 -1 -13 10 -15
9 -13 -13 3 -21 1 -23 -16 -15 -14 8 -17 7 -13 -3 3 -9 -3 -17 -15 -20 -12 -3
-21 -13 -21 -22 0 -10 -5 -13 -12 -9 -8 5 -9 0 -5 -16 4 -16 3 -20 -4 -13 -11
11 -59 -25 -59 -45 0 -5 -7 -13 -16 -16 -10 -4 -14 -12 -10 -22 5 -14 4 -15
-8 -5 -9 7 -17 8 -20 2 -3 -5 0 -12 6 -15 7 -4 3 -4 -10 -2 -20 4 -21 2 -10
-12 8 -10 9 -13 1 -9 -6 4 -14 3 -18 -3 -4 -6 -10 -8 -15 -5 -4 3 -7 -3 -6
-13 1 -11 -5 -16 -16 -14 -20 3 -24 -14 -5 -21 7 -3 4 -6 -6 -6 -12 -1 -16 -5
-11 -13 5 -9 2 -8 -9 1 -15 12 -17 12 -11 -4 6 -13 4 -16 -5 -10 -10 6 -11 2
-6 -16 7 -23 7 -24 -9 -4 -15 20 -15 20 -16 -1 0 -13 -8 -24 -20 -27 -11 -3
-20 -13 -20 -22 0 -12 -5 -15 -16 -11 -14 5 -15 4 -4 -9 11 -13 10 -14 -4 -9
-9 4 -16 3 -15 -2 4 -21 -2 -28 -11 -14 -8 12 -10 9 -10 -12 0 -15 -4 -30 -10
-33 -6 -4 -7 1 -4 12 5 13 2 12 -10 -5 -10 -12 -15 -26 -12 -31 3 -5 -2 -8
-11 -7 -10 0 -18 -6 -18 -14 0 -9 -8 -14 -19 -12 -12 2 -16 -1 -10 -9 5 -9 2
-11 -8 -6 -12 4 -15 0 -13 -18 1 -14 -1 -22 -6 -20 -4 3 -9 2 -12 -2 -2 -5 -2
-1 0 7 2 8 -6 4 -19 -10 -13 -13 -24 -29 -24 -35 -1 -5 -2 -14 -3 -19 0 -5 -9
-2 -18 5 -11 10 -14 10 -9 2 4 -8 2 -13 -4 -13 -6 0 -8 -5 -4 -12 5 -7 2 -9
-8 -5 -12 4 -15 0 -13 -18 2 -22 0 -23 -19 -13 -19 10 -19 9 -8 -4 10 -13 10
-18 1 -24 -8 -4 -9 -3 -5 4 11 19 -3 14 -27 -9 -14 -12 -16 -19 -7 -16 8 2 12
2 7 0 -4 -3 -5 -8 -2 -13 3 -4 -3 -7 -12 -6 -10 0 -18 -4 -18 -11 0 -6 -4 -15
-9 -20 -5 -5 -6 -3 -2 5 4 6 2 12 -3 12 -6 0 -11 -5 -11 -11 0 -5 -6 -7 -12
-3 -10 6 -10 5 -1 -8 15 -17 8 -29 -12 -22 -15 6 -38 -29 -27 -40 3 -4 -2 -4
-13 0 -17 7 -18 6 -7 -8 10 -13 8 -15 -15 -11 -22 4 -25 2 -13 -6 14 -10 7
-15 -13 -12 -4 1 -7 -7 -5 -16 2 -10 -3 -18 -12 -18 -8 0 -14 -8 -14 -18 1 -9
-2 -14 -7 -11 -5 3 -19 -2 -31 -12 -17 -12 -18 -15 -5 -10 11 3 16 2 12 -4 -3
-6 -18 -10 -33 -10 -19 0 -23 -3 -13 -9 9 -6 10 -11 2 -15 -6 -4 -11 -4 -11 1
-1 4 -8 -5 -16 -20 -8 -15 -20 -25 -25 -21 -6 3 -9 -2 -7 -12 2 -11 -3 -19
-12 -19 -8 0 -14 -8 -14 -18 1 -9 -1 -15 -5 -13 -3 2 -17 -2 -31 -11 -14 -8
-17 -12 -7 -9 11 3 15 2 12 -4 -3 -6 -18 -10 -33 -10 -19 0 -23 -3 -14 -9 11
-6 6 -14 -18 -31 -18 -13 -29 -28 -26 -36 3 -8 2 -13 -2 -13 -20 3 -33 -2 -27
-11 4 -6 -1 -7 -11 -3 -13 5 -16 3 -11 -10 6 -17 -17 -42 -31 -33 -13 8 -50
-36 -47 -56 2 -10 -2 -21 -7 -25 -7 -3 -8 -1 -4 5 4 7 2 12 -3 12 -6 0 -11 -4
-11 -10 0 -5 -6 -7 -14 -4 -9 4 -13 -2 -11 -20 2 -15 -1 -24 -6 -20 -5 3 -6
11 -2 17 3 7 -3 3 -15 -7 -16 -14 -19 -22 -11 -32 8 -10 6 -12 -10 -9 -12 2
-22 0 -22 -6 -1 -5 -2 -13 -3 -18 -2 -15 -16 -25 -16 -12 0 7 -4 10 -10 6 -5
-3 -6 -13 -3 -22 4 -11 3 -14 -5 -9 -7 4 -12 2 -12 -4 0 -6 -4 -9 -8 -6 -5 3
-22 -9 -38 -27 l-29 -32 31 28 c23 21 34 25 39 16 5 -7 4 -10 -2 -6 -13 8 -66
-47 -56 -58 5 -4 3 -5 -4 -2 -6 4 -19 4 -28 1 -13 -6 -14 -9 -3 -16 9 -7 7 -8
-9 -5 -13 3 -23 1 -23 -4 0 -5 5 -9 10 -9 6 0 10 -4 10 -9 0 -5 -8 -7 -19 -4
-20 5 -36 -21 -24 -39 3 -6 1 -8 -4 -5 -11 7 -47 -26 -38 -35 3 -2 -2 -5 -10
-5 -11 0 -8 9 12 31 l28 31 -32 -29 c-17 -15 -29 -34 -27 -41 3 -6 -3 -18 -13
-26 -16 -13 -17 -12 -5 3 9 11 10 18 2 23 -6 4 -10 3 -9 -2 3 -13 -12 -43 -23
-43 -5 0 -6 6 -2 13 4 7 2 7 -7 -2 -11 -10 -11 -15 -1 -18 20 -8 14 -22 -8
-18 -18 3 -24 -5 -22 -26 2 -9 -31 -37 -43 -38 -5 -1 -11 -5 -11 -11 -1 -5 -2
-13 -3 -16 0 -4 -9 0 -18 7 -9 8 -14 9 -10 2 4 -6 1 -14 -5 -16 -10 -4 -10 -6
0 -6 6 -1 12 -5 12 -10 0 -5 -11 -8 -25 -6 -20 2 -23 -1 -14 -11 8 -10 6 -12
-10 -9 -19 3 -20 1 -10 -17 6 -11 7 -18 2 -15 -6 4 -23 -7 -38 -23 -15 -16
-33 -26 -39 -23 -6 4 -5 -1 3 -10 12 -15 12 -17 -2 -11 -9 3 -24 0 -34 -6 -13
-8 -13 -10 -2 -7 9 3 16 -1 16 -8 0 -7 -7 -12 -16 -11 -9 1 -15 -4 -14 -10 1
-7 -7 -20 -19 -30 -12 -11 -18 -13 -14 -6 9 16 -20 16 -30 0 -4 -6 -3 -8 4 -4
6 4 10 -1 9 -13 -1 -13 -5 -17 -12 -11 -6 5 -20 1 -34 -11 -13 -10 -20 -19
-15 -19 4 0 17 8 28 18 21 17 21 17 3 -4 -9 -11 -14 -23 -11 -26 3 -3 -3 -5
-13 -4 -10 0 -17 -4 -16 -11 2 -7 -4 -10 -12 -7 -8 4 -15 1 -15 -6 0 -6 -5 -8
-12 -4 -10 6 -10 5 -1 -8 11 -12 9 -18 -9 -34 -19 -16 -20 -16 -9 -1 20 26 2
21 -24 -7 -15 -17 -19 -28 -12 -35 7 -7 3 -8 -13 -4 -16 4 -21 3 -16 -5 4 -7
1 -12 -10 -12 -14 0 -14 -3 -4 -15 11 -13 10 -14 -4 -9 -10 4 -18 0 -22 -10
-3 -9 -10 -13 -16 -10 -5 3 -8 -2 -6 -11 2 -11 -4 -19 -17 -21 -22 -3 -47 -32
-39 -45 3 -5 -3 -6 -13 -2 -15 6 -16 5 -5 -9 11 -14 10 -16 -6 -11 -11 2 -23
-1 -27 -8 -6 -8 -4 -10 6 -4 12 8 12 6 0 -9 -8 -9 -21 -14 -29 -11 -12 5 -13
3 -2 -10 11 -13 11 -16 -1 -13 -8 2 -13 -4 -13 -13 1 -9 -6 -16 -15 -15 -9 0
-15 -5 -13 -13 3 -12 1 -12 -14 0 -16 13 -16 12 -6 -8 11 -19 9 -21 -14 -18
-19 2 -24 -1 -19 -13 6 -17 -13 -44 -26 -36 -5 3 -9 0 -9 -6 0 -6 -5 -8 -11
-5 -6 4 -9 0 -7 -11 2 -14 -3 -19 -19 -18 -19 1 -21 -2 -12 -17 5 -11 6 -18 2
-17 -4 1 -18 -2 -31 -6 -17 -6 -20 -11 -12 -20 8 -10 4 -12 -17 -9 -18 3 -24
1 -16 -4 10 -7 10 -13 -2 -29 -15 -19 -15 -19 -9 1 5 20 5 20 -10 1 -8 -10
-13 -23 -10 -27 3 -5 -3 -6 -13 -2 -15 6 -16 4 -5 -9 11 -13 10 -16 -5 -14
-10 0 -17 -4 -16 -11 2 -7 -4 -10 -12 -7 -8 4 -15 1 -15 -6 0 -6 -5 -8 -12 -4
-10 6 -10 5 -1 -8 11 -12 9 -18 -9 -34 -19 -16 -20 -16 -9 -1 20 26 2 21 -24
-7 -15 -17 -19 -28 -12 -35 7 -7 3 -8 -13 -4 -16 4 -21 3 -16 -5 4 -7 1 -12
-10 -12 -13 0 -14 -3 -5 -14 9 -11 8 -14 -6 -12 -10 0 -17 -4 -16 -11 2 -8 -4
-10 -14 -6 -12 5 -15 2 -10 -9 8 -22 -3 -30 -21 -15 -13 11 -14 9 -2 -13 12
-22 12 -24 -2 -12 -11 9 -18 10 -23 2 -3 -5 -1 -10 5 -10 6 0 8 -5 5 -10 -5
-8 -11 -7 -21 1 -12 10 -13 9 -8 -6 5 -12 4 -16 -4 -11 -7 4 -10 -1 -7 -15 4
-17 2 -19 -11 -8 -12 10 -13 9 -8 -6 6 -15 3 -17 -14 -13 -12 3 -21 3 -20 -1
1 -3 -1 -16 -6 -28 -7 -21 -17 -27 -38 -24 -4 0 -5 -6 -2 -14 4 -8 11 -12 17
-8 6 3 7 1 3 -6 -6 -9 -11 -9 -22 0 -9 7 -14 8 -13 3 1 -5 0 -13 -1 -19 -1 -5
-3 -19 -4 -30 0 -11 -7 -19 -14 -17 -10 2 -10 -2 -2 -18 9 -16 8 -19 -7 -13
-12 5 -15 2 -10 -10 3 -9 2 -19 -4 -23 -6 -4 -6 -11 2 -20 9 -11 9 -14 0 -14
-9 0 -9 -5 -1 -20 8 -15 8 -20 -1 -20 -8 0 -8 -4 1 -15 11 -13 10 -14 -5 -9
-13 5 -16 4 -11 -4 4 -8 0 -12 -11 -13 -11 0 -13 -3 -5 -6 10 -4 10 -8 0 -21
-11 -13 -11 -14 2 -7 13 8 13 7 1 -8 -10 -13 -10 -17 -1 -17 10 0 10 -3 0 -15
-10 -12 -10 -15 1 -15 12 0 12 -2 1 -9 -8 -4 -13 -11 -13 -15 3 -19 0 -27 -8
-21 -5 3 -13 0 -17 -6 -4 -8 -3 -9 4 -5 7 4 12 1 12 -8 0 -9 -5 -16 -10 -16
-7 0 -7 -7 1 -22 10 -18 9 -20 -6 -14 -13 5 -15 3 -8 -6 13 -17 14 -56 2 -63
-5 -4 -7 -11 -4 -16 3 -5 -1 -6 -9 -3 -11 4 -14 0 -11 -15 2 -12 7 -26 11 -33
5 -7 2 -9 -9 -5 -11 4 -14 2 -10 -8 3 -8 10 -12 17 -8 6 3 2 -4 -9 -16 -10
-12 -20 -34 -21 -47 0 -14 -6 -30 -12 -36 -7 -7 -12 -17 -12 -22 0 -6 5 -4 11
4 8 12 9 10 7 -10 -2 -14 -7 -28 -13 -32 -6 -5 -4 -8 4 -8 11 0 9 -4 -5 -15
-12 -10 -14 -14 -4 -12 8 2 12 2 7 0 -4 -3 -5 -9 -2 -14 4 -5 -2 -6 -11 -2
-13 5 -16 2 -12 -9 4 -8 2 -21 -2 -29 -5 -8 -4 -19 2 -26 7 -9 7 -13 -2 -13
-10 0 -10 -3 0 -15 9 -10 9 -15 1 -15 -6 0 -11 -5 -11 -11 0 -5 6 -7 13 -3 8
5 8 3 -2 -9 -7 -9 -17 -14 -22 -11 -5 3 -6 -2 -3 -10 3 -9 1 -16 -5 -16 -8 0
-9 -6 -2 -18 7 -13 6 -23 -1 -30 -9 -9 -8 -12 2 -12 13 0 13 -2 1 -9 -13 -8
-13 -12 0 -27 8 -10 9 -15 3 -11 -7 4 -15 0 -18 -9 -3 -9 -11 -12 -18 -8 -9 5
-9 3 1 -9 7 -9 9 -17 4 -17 -11 0 -11 -29 0 -47 4 -6 3 -14 -3 -18 -6 -4 -7
-11 -4 -17 4 -5 -3 -23 -15 -39 -24 -32 -27 -44 -8 -33 8 5 8 2 -2 -9 -7 -9
-10 -17 -6 -17 4 0 2 -6 -4 -14 -9 -11 -9 -16 0 -22 8 -5 9 -3 4 6 -5 8 -4 11
3 6 6 -4 9 -13 6 -21 -4 -8 -11 -12 -17 -8 -7 4 -8 0 -3 -12 5 -14 4 -15 -7
-7 -10 8 -13 6 -13 -8 0 -10 5 -16 11 -13 5 4 2 -3 -8 -14 -9 -11 -17 -24 -17
-29 0 -5 5 -2 10 6 7 11 9 4 6 -25 -1 -22 -8 -40 -13 -40 -6 0 -15 -3 -19 -7
-3 -4 3 -6 15 -3 11 2 21 0 21 -6 0 -5 -6 -9 -12 -9 -19 0 -38 -46 -25 -59 8
-8 7 -11 -1 -11 -10 0 -10 -5 -2 -20 7 -14 7 -20 0 -20 -5 0 -10 -5 -10 -11 0
-5 6 -7 13 -4 6 4 1 -3 -12 -14 -13 -12 -19 -21 -15 -21 5 0 2 -5 -6 -10 -13
-8 -13 -10 0 -10 10 0 11 -3 2 -12 -7 -7 -8 -17 -2 -28 10 -19 -15 -64 -31
-55 -5 4 -5 -4 1 -19 5 -14 6 -26 1 -26 -5 0 -5 -16 -1 -34 5 -24 3 -41 -5
-53 -7 -10 -13 -22 -13 -26 0 -5 -4 -12 -8 -15 -4 -4 -4 -2 0 5 3 6 3 14 -2
17 -4 2 -9 -4 -9 -15 -1 -10 3 -19 8 -19 6 0 7 -6 3 -12 -13 -20 -12 -52 0
-67 8 -11 8 -13 -1 -7 -9 5 -13 0 -13 -14 0 -15 -5 -20 -14 -17 -9 4 -12 0 -9
-13 3 -10 0 -21 -6 -24 -6 -4 -11 -13 -11 -19 0 -7 4 -6 10 3 6 10 9 6 8 -18
-1 -20 -5 -29 -12 -25 -6 3 -8 3 -4 -2 4 -4 3 -14 -4 -22 -8 -10 -8 -13 3 -10
8 2 11 2 6 0 -4 -3 -5 -9 -2 -14 4 -5 -1 -6 -9 -3 -19 7 -21 -7 -3 -25 10 -11
9 -12 -2 -6 -10 6 -12 -2 -11 -36 4 -70 3 -74 -17 -58 -15 13 -15 12 -3 -10
11 -22 11 -23 -6 -17 -17 6 -17 6 -1 -12 9 -10 14 -22 10 -27 -5 -4 -2 -5 4
-1 7 4 13 14 13 22 0 8 5 14 11 14 5 0 8 -4 4 -9 -3 -5 -1 -13 5 -16 6 -4 9
-1 8 7 -2 9 11 14 40 16 26 2 40 7 36 14 -4 5 5 2 19 -7 25 -16 26 -16 22 2
-3 16 2 19 26 18 17 -1 32 1 34 5 2 4 22 6 44 6 26 -1 42 3 46 12 4 12 8 12
20 2 13 -11 14 -10 10 1 -4 10 4 15 25 16 18 1 30 -3 30 -10 0 -7 5 -4 11 6 7
13 15 15 28 8 16 -9 44 -1 42 13 -3 18 0 20 9 6 7 -11 10 -11 10 -2 0 7 5 10
10 7 6 -3 10 -1 10 5 0 6 5 8 12 4 26 -16 79 -10 103 12 14 13 27 18 31 13 4
-7 10 -7 18 0 7 6 17 6 26 1 8 -5 21 -5 31 0 9 5 19 6 23 2 4 -3 4 2 0 12 -5
14 -4 17 4 12 7 -4 12 -2 12 5 0 8 4 8 15 -1 10 -9 15 -9 15 -1 0 13 22 10 32
-4 5 -6 8 -6 8 1 0 7 13 10 30 9 25 -2 30 1 30 19 0 15 3 17 9 8 7 -12 12 -12
29 -1 17 11 24 11 34 1 9 -9 16 -8 32 6 11 9 16 11 12 5 -4 -7 -3 -13 3 -13 5
0 13 9 16 21 5 15 10 17 20 9 10 -8 16 -7 24 7 6 10 11 13 11 7 0 -11 35 -12
46 -2 3 4 12 4 20 1 8 -3 14 -1 14 4 0 4 9 14 21 21 12 8 19 10 16 5 -3 -5 18
-7 46 -6 29 1 57 2 64 3 7 0 10 7 6 16 -5 14 -3 15 15 5 19 -10 21 -9 15 6 -6
15 -4 16 8 6 12 -10 18 -10 27 -1 7 7 12 8 12 2 0 -6 7 -11 15 -11 8 0 15 5
15 10 0 5 6 4 14 -2 11 -9 16 -9 22 0 5 8 3 9 -6 4 -9 -6 -11 -4 -6 4 5 7 14
10 21 7 7 -2 16 2 19 10 3 8 10 14 16 14 6 0 8 -4 5 -10 -4 -6 2 -7 18 -1 17
7 29 6 37 -2 10 -9 11 -9 6 1 -9 16 6 16 23 -1 10 -10 11 -8 5 6 -4 12 -2 17
7 15 8 -2 13 2 12 8 -1 6 4 11 12 11 8 0 11 -5 8 -10 -3 -5 2 -5 13 1 11 6 27
7 42 1 22 -9 23 -8 12 6 -12 14 -10 14 15 5 22 -8 26 -8 22 4 -4 10 1 13 18
11 14 -1 22 2 19 6 -8 13 10 11 25 -3 8 -8 11 -8 8 -2 -5 8 9 11 43 10 38 -2
47 0 39 10 -7 8 -7 14 1 19 5 3 10 1 10 -4 0 -6 5 -11 11 -11 5 0 8 4 5 9 -3
5 1 12 10 15 8 3 12 2 9 -4 -8 -12 -8 -12 33 -1 23 7 30 7 26 -1 -5 -8 -1 -9
10 -5 10 4 20 7 22 7 3 0 2 6 -2 13 -5 8 -2 7 9 -2 15 -12 17 -12 11 4 -5 12
-4 16 4 11 6 -3 14 -1 18 5 5 8 9 7 14 -2 7 -10 11 -10 24 0 12 11 16 11 16 1
0 -10 3 -10 15 0 12 10 15 10 15 0 0 -7 9 -2 19 12 18 22 26 24 72 20 29 -2
49 0 46 5 -3 5 3 10 14 10 18 2 19 0 7 -15 -12 -15 -11 -16 5 -3 10 8 16 20
13 28 -3 7 -1 13 3 13 5 0 11 -6 14 -12 3 -10 9 -8 24 4 15 14 22 15 32 5 11
-10 13 -8 9 9 -5 18 -2 21 16 17 15 -3 17 -2 8 5 -11 7 -9 11 8 15 12 3 19 10
15 16 -4 7 0 8 11 4 12 -4 15 -3 10 5 -4 7 -1 12 9 12 11 0 15 5 11 15 -3 9 0
15 9 15 7 0 16 9 20 19 4 13 12 18 22 14 11 -4 14 -2 9 5 -4 7 -2 12 3 12 6 0
10 6 9 13 -2 7 6 12 18 11 11 -1 21 5 21 12 0 7 -5 10 -10 7 -6 -3 -7 -1 -3 5
4 7 14 12 22 12 8 0 13 4 10 9 -3 5 5 12 18 15 18 4 24 12 21 25 -3 14 1 18
11 14 10 -4 17 2 21 15 3 13 10 19 19 15 10 -4 12 0 8 11 -5 12 0 19 15 23 14
3 20 11 17 20 -3 8 -1 11 4 8 6 -3 10 -1 10 6 0 6 8 9 20 6 11 -3 18 -2 15 2
-2 4 8 21 23 37 15 16 28 33 30 37 1 4 5 7 8 6 3 0 14 9 24 21 12 14 24 19 32
14 10 -6 10 -4 -1 9 -11 15 -11 17 2 17 8 0 18 7 21 16 3 8 10 13 15 10 5 -3
15 2 22 11 10 12 10 14 2 9 -8 -4 -13 -2 -13 5 0 7 8 9 21 6 17 -4 18 -3 8 9
-10 12 -9 13 5 8 9 -4 16 -3 15 2 -4 22 2 33 15 28 8 -3 17 0 22 7 5 8 3 10
-6 4 -8 -5 -11 -3 -8 6 3 8 14 14 25 13 11 -1 20 5 20 12 0 7 -5 10 -10 7 -6
-3 -7 -1 -3 5 4 7 14 12 22 12 8 0 13 4 10 9 -3 5 1 12 10 15 10 4 13 2 8 -6
-5 -7 -3 -8 5 -3 7 4 11 16 8 26 -3 11 -2 17 2 14 5 -2 17 3 27 11 10 9 12 12
4 8 -13 -7 -13 -6 -1 9 11 14 16 15 29 5 13 -10 14 -10 8 0 -8 13 18 45 28 34
4 -3 4 2 0 13 -7 17 -6 18 8 7 14 -11 16 -10 11 9 -4 15 -3 20 5 15 7 -4 12
-2 12 4 0 6 4 8 10 5 6 -3 7 1 4 9 -4 11 0 16 11 16 10 0 13 5 9 12 -5 8 -2 9
9 5 9 -3 19 -1 23 5 5 7 2 8 -7 3 -8 -4 -6 0 4 11 10 10 25 28 33 39 9 11 13
14 9 8 -4 -9 -1 -11 10 -7 12 5 13 9 4 20 -10 12 -8 13 6 7 14 -5 17 -3 12 9
-4 11 2 18 19 22 14 4 22 11 19 16 -3 6 1 10 10 10 8 0 18 7 21 15 4 8 10 12
15 9 5 -3 9 -2 8 3 -4 21 2 32 15 27 8 -3 17 0 22 7 5 8 3 10 -6 4 -8 -5 -11
-3 -9 4 3 7 8 11 11 9 4 -2 13 6 21 16 9 13 19 16 28 11 11 -7 11 -5 -1 10
-14 17 -13 18 2 13 9 -4 19 -1 22 7 3 10 0 12 -12 9 -15 -5 -15 -4 1 6 9 6 22
8 29 4 6 -4 8 -3 5 3 -4 6 4 22 17 36 16 18 26 22 29 14 3 -7 6 -2 6 11 1 16
7 22 24 23 12 0 17 3 10 5 -8 4 -7 11 5 23 9 10 20 16 25 14 4 -2 7 1 7 7 0 6
4 8 10 5 6 -3 7 1 4 9 -4 11 0 16 11 16 9 0 13 5 10 11 -4 6 0 9 11 7 14 -2
18 2 16 16 -2 11 1 15 7 11 6 -3 11 -1 11 5 0 6 4 9 9 6 5 -3 8 2 7 12 -1 12
6 17 22 16 16 -1 20 2 12 11 -7 8 -3 15 15 23 14 6 25 17 25 23 0 6 7 9 15 6
8 -4 17 -1 21 5 4 7 3 8 -4 4 -7 -4 -12 -1 -12 8 0 10 9 16 21 16 17 0 19 3
10 14 -9 11 -8 15 4 20 9 3 14 2 11 -3 -4 -5 3 -7 15 -4 14 4 17 8 9 13 -18
11 -3 29 21 25 18 -4 19 -2 8 11 -10 12 -9 16 9 21 12 3 19 10 15 16 -4 6 0 8
11 4 9 -4 15 -3 11 2 -7 13 24 43 37 35 7 -4 8 -2 4 5 -4 6 -2 18 4 27 10 12
16 12 28 2 13 -10 14 -10 8 0 -10 16 20 46 36 36 9 -6 9 -3 -1 9 -12 15 -11
17 2 17 9 0 18 9 22 19 4 13 11 18 22 14 12 -5 15 -2 10 10 -4 11 -1 17 8 17
8 0 15 5 15 11 0 5 5 7 10 4 6 -4 10 -3 9 2 -4 21 2 32 15 27 8 -3 17 0 22 7
5 8 3 10 -6 4 -8 -5 -11 -3 -8 6 3 8 15 13 27 13 17 -1 19 1 10 13 -10 11 -8
15 9 20 12 3 19 10 16 15 -3 5 2 8 12 6 14 -2 18 2 16 17 -2 11 -1 17 4 13 4
-4 13 0 21 10 8 9 11 11 7 3 -5 -10 -3 -12 5 -7 9 6 9 11 -1 24 -10 12 -10 14
0 8 7 -4 12 -2 12 6 0 9 3 9 10 -2 7 -11 10 -12 10 -2 0 21 28 44 42 36 9 -6
9 -3 -1 9 -12 15 -11 17 3 17 9 0 19 7 22 15 4 8 10 13 14 10 5 -3 12 0 16 6
4 8 3 9 -4 5 -7 -4 -12 -2 -12 3 0 6 7 11 16 11 9 0 12 5 8 12 -5 8 -2 9 9 5
9 -3 19 -1 23 5 5 7 2 8 -7 3 -8 -4 -6 0 4 11 10 10 25 28 33 39 9 11 13 14 9
8 -4 -8 -1 -11 9 -7 9 3 12 12 8 22 -5 15 -4 16 13 2 17 -14 18 -14 5 9 -11
21 -10 23 4 18 9 -4 16 -2 16 4 0 6 4 8 9 4 5 -3 13 0 17 6 4 8 3 9 -4 5 -7
-4 -12 -2 -12 3 0 6 7 11 16 11 8 0 13 4 9 9 -3 5 0 13 6 17 7 4 9 3 6 -3 -4
-6 -1 -13 6 -16 16 -6 18 35 3 45 -6 5 4 5 23 1 25 -4 32 -3 27 6 -4 6 -13 8
-19 4 -7 -4 -6 1 2 11 8 10 23 15 33 13 10 -3 21 0 25 5 3 6 1 8 -4 5 -6 -4
-13 -1 -16 6 -5 13 5 17 48 18 16 0 17 2 5 9 -8 5 -18 6 -22 4 -4 -3 -5 2 -1
11 4 11 8 13 13 5 4 -7 16 2 30 23 15 22 29 33 39 29 9 -3 12 -1 7 6 -4 7 -2
12 3 12 6 0 10 5 8 11 -1 6 4 14 11 16 8 3 10 -2 6 -14 -5 -17 -5 -17 6 0 6
10 9 25 6 33 -5 12 -2 12 17 3 21 -12 21 -11 7 6 -14 17 -13 18 3 12 12 -5 17
-1 17 13 0 23 16 35 26 19 5 -8 3 -9 -6 -4 -9 5 -11 4 -6 -4 10 -16 26 -4 19
14 -3 9 1 15 11 15 9 0 13 6 10 15 -4 10 0 13 14 10 16 -3 19 1 14 18 -5 20
-4 21 11 8 15 -12 17 -12 10 4 -5 14 -3 17 9 13 8 -4 15 -1 15 8 0 7 -5 11
-11 8 -6 -3 0 4 13 15 13 12 30 21 38 21 10 0 13 6 9 16 -4 12 -2 15 9 10 9
-3 15 0 15 10 0 8 4 12 10 9 5 -3 7 0 4 9 -4 12 1 14 23 11 15 -2 22 -2 16 1
-20 9 -16 37 3 30 12 -4 15 -2 10 9 -3 9 0 15 10 15 8 0 19 11 24 25 7 18 14
23 26 18 14 -5 16 -3 11 11 -6 15 -3 17 13 13 11 -3 18 -1 15 3 -10 16 6 39
22 33 11 -4 14 -2 9 5 -4 7 -2 12 3 12 6 0 10 6 8 13 -1 7 7 12 20 11 18 0 20
3 12 18 -5 10 -6 18 -2 17 21 -4 33 2 27 13 -5 8 -2 9 9 5 9 -3 19 -1 23 5 5
7 2 8 -7 4 -8 -4 -6 -1 4 7 9 8 17 19 17 25 0 6 7 9 15 6 9 -4 15 0 15 8 0 8
8 25 19 36 19 23 37 30 25 10 -4 -7 -3 -8 5 -4 6 4 8 12 5 18 -5 7 -1 9 9 5
11 -4 14 -2 10 9 -3 9 1 14 13 14 14 0 16 3 6 9 -10 6 -9 11 4 22 12 9 15 10
10 2 -4 -7 -2 -13 3 -13 9 0 15 20 13 41 -1 4 6 6 16 5 9 0 17 4 17 11 0 6 4
15 9 20 5 4 6 3 2 -4 -3 -6 -2 -15 4 -18 6 -4 10 -3 9 2 -5 29 2 45 19 41 14
-4 18 0 18 16 -1 12 5 20 12 19 6 -2 12 2 12 8 0 5 4 8 8 5 4 -2 14 0 22 6 12
8 12 9 -2 4 -10 -3 -18 -1 -18 4 0 6 7 10 16 10 11 0 14 5 10 16 -6 15 -4 15
11 3 9 -8 14 -9 10 -3 -4 7 0 14 8 18 8 3 15 13 15 21 0 9 5 13 10 10 6 -3 10
1 10 9 0 8 5 18 12 22 6 4 8 3 5 -3 -3 -5 0 -10 7 -10 7 0 13 10 12 21 -1 12
4 20 12 19 6 -2 12 2 12 8 0 5 4 7 10 4 6 -4 7 1 3 12 -6 16 -5 16 10 4 15
-12 17 -12 11 3 -3 9 -1 16 5 16 6 0 11 7 11 15 0 9 6 12 17 8 12 -5 15 -2 10
10 -4 12 -2 14 11 10 15 -6 16 -5 2 12 -10 13 -11 16 -2 11 9 -5 19 -1 28 12
8 12 20 20 27 18 6 -1 9 -1 5 1 -14 8 -8 25 6 20 11 -4 13 -1 9 10 -4 11 -2
14 5 9 8 -4 12 0 12 11 0 15 2 16 10 3 8 -13 10 -12 11 5 1 11 1 23 1 26 -1 4
8 5 19 2 11 -3 19 -2 18 3 -1 5 -1 16 0 24 1 13 2 13 11 0 8 -13 10 -12 11 5
1 11 1 24 -1 30 -1 5 9 1 22 -10 22 -19 22 -19 8 -1 -14 18 -13 19 4 13 16 -6
17 -5 6 8 -10 12 -10 15 1 15 8 0 20 9 27 20 7 12 17 18 22 15 5 -3 12 0 16 6
4 8 3 9 -4 5 -7 -4 -12 -2 -12 3 0 6 5 12 10 12 6 1 15 3 20 4 6 1 13 3 16 4
4 0 0 9 -7 18 -10 11 -10 14 -1 9 6 -4 12 -3 12 3 0 6 6 8 14 5 9 -3 13 1 13
13 -2 13 4 18 21 17 18 -1 20 1 11 12 -9 11 -6 16 15 24 14 5 26 15 26 21 0 6
7 9 15 5 9 -3 15 0 15 10 0 8 -4 12 -10 9 -5 -3 -10 -4 -10 0 0 3 11 10 25 15
14 5 25 14 25 20 0 6 -5 8 -12 4 -7 -4 -8 -3 -4 5 6 9 12 9 24 -1 10 -7 14 -8
9 -3 -4 5 5 15 20 22 23 10 24 12 4 7 -16 -4 -21 -3 -17 5 4 6 14 11 22 11 8
0 14 6 14 14 0 7 10 16 21 19 15 4 20 11 16 22 -5 12 -3 14 12 5 16 -8 18 -7
14 10 -4 15 0 20 16 20 12 0 19 5 16 10 -3 6 -1 10 5 10 6 0 8 5 4 12 -5 7 -2
9 9 5 12 -4 15 -1 12 14 -2 11 0 17 5 14 4 -3 17 6 28 20 11 13 22 21 26 18 3
-3 6 -1 6 6 0 7 4 10 9 6 5 -3 13 0 17 6 4 8 3 9 -4 5 -7 -4 -12 -2 -12 3 0 6
7 11 16 11 9 0 12 5 8 12 -5 7 -2 9 8 5 21 -7 31 3 17 19 -7 8 -6 14 2 20 8 4
9 3 5 -4 -4 -7 -2 -12 3 -12 6 0 11 4 11 8 0 5 7 17 16 28 14 18 14 18 3 -6
l-12 -25 20 20 c15 14 18 24 10 33 -7 9 -6 11 7 6 11 -4 16 -2 14 7 -2 8 3 13
10 11 6 -1 12 3 12 9 0 5 4 7 10 4 6 -3 7 1 4 9 -4 10 -1 16 8 16 17 0 49 36
40 46 -4 4 1 4 11 1 11 -4 16 -3 12 3 -3 6 -1 10 4 10 6 0 10 6 9 13 -2 7 6
11 20 11 18 -1 20 1 11 12 -8 10 -8 14 -1 14 15 0 62 45 62 59 0 6 10 11 22
11 17 0 19 3 11 11 -9 9 -5 17 15 33 14 12 31 21 37 21 5 0 9 8 9 17 -1 10 1
17 5 16 20 -2 31 3 25 14 -5 8 -2 9 10 5 11 -5 15 -3 10 5 -5 8 -2 9 10 5 14
-6 15 -3 6 13 -6 11 -7 20 -3 19 22 -4 43 2 43 12 0 5 -5 7 -12 3 -7 -5 -8 -3
-4 5 5 7 10 10 13 7 11 -11 41 14 45 38 4 19 1 23 -11 18 -13 -5 -14 -3 -3 10
10 13 9 15 -12 13 -19 -3 -23 1 -19 19 4 17 3 18 -6 6 -7 -10 -11 -11 -11 -2
0 6 -7 12 -15 12 -8 0 -12 6 -9 14 4 11 0 13 -18 9 -18 -4 -20 -3 -8 6 10 7
11 11 3 11 -7 0 -26 14 -43 30 -17 17 -26 30 -20 30 6 0 9 4 5 10 -3 5 -12 7
-20 3 -11 -4 -13 -1 -9 11 5 12 2 15 -10 10 -11 -4 -16 -1 -16 11 0 11 -5 15
-16 11 -9 -3 -12 -2 -9 5 4 5 -2 18 -14 28 -11 10 -17 21 -13 25 4 5 -2 6 -13
4 -15 -2 -20 2 -19 19 1 19 -2 21 -17 13 -20 -11 -28 -4 -24 21 2 12 -3 15
-19 12 -16 -4 -18 -3 -7 5 12 9 9 14 -17 29 -18 10 -32 22 -32 26 0 5 -6 5
-12 1 -8 -5 -7 0 2 11 9 11 10 16 3 11 -7 -4 -13 -2 -13 3 0 6 -7 11 -16 11
-10 0 -14 5 -10 16 3 8 2 12 -4 9 -6 -3 -10 -1 -10 4 0 6 -7 11 -16 11 -8 0
-13 4 -9 9 3 5 -4 12 -15 16 -11 3 -20 13 -20 21 0 8 -4 12 -10 9 -5 -3 -10 1
-10 9 0 9 -7 16 -16 16 -8 0 -12 5 -9 10 3 6 2 10 -4 10 -16 0 -43 32 -38 45
3 6 -1 12 -9 12 -7 0 -11 -4 -8 -9 3 -4 0 -8 -5 -8 -10 0 -15 20 -12 42 0 4
-8 5 -19 3 -13 -3 -17 1 -13 11 4 10 -2 17 -16 21 -11 3 -18 9 -15 14 5 8 -9
13 -28 10 -5 0 -7 2 -7 6 3 20 -2 34 -11 28 -9 -6 -14 8 -11 28 1 5 -3 6 -9 2
-5 -3 -10 0 -10 7 0 9 -3 9 -10 -2 -7 -12 -10 -8 -10 15 0 23 -3 27 -10 15 -7
-11 -10 -11 -10 -2 0 7 -4 11 -9 8 -5 -4 -7 4 -5 16 2 13 1 17 -2 10 -4 -10
-12 -4 -25 17 -10 17 -24 31 -29 31 -6 0 -8 4 -5 10 3 6 -1 7 -9 4 -11 -4 -16
0 -16 10 0 9 -5 16 -11 16 -5 0 -7 6 -3 13 5 7 0 6 -11 -3 -11 -9 -16 -10 -11
-2 4 6 3 12 -3 12 -5 0 -13 9 -16 20 -4 11 -11 17 -17 14 -8 -5 -9 -1 -5 10 4
9 3 15 -2 11 -6 -3 -14 3 -20 12 -6 10 -11 14 -11 9 0 -6 -6 -1 -14 10 -11 14
-11 21 -3 27 7 5 4 6 -8 3 -14 -4 -24 1 -33 14 -9 15 -9 20 0 20 6 0 8 3 5 6
-4 4 -14 1 -24 -7 -11 -9 -14 -10 -9 -1 4 6 3 12 -3 12 -5 0 -13 9 -16 20 -3
11 -13 20 -21 20 -8 0 -13 3 -11 8 6 9 -19 33 -27 25 -3 -4 -6 -1 -6 6 0 7 -5
9 -12 5 -10 -6 -10 -4 0 7 15 17 16 37 1 22 -15 -15 -44 11 -33 28 4 7 3 10
-2 6 -5 -3 -18 1 -29 9 -10 8 -15 14 -9 14 5 1 -2 7 -16 15 -14 8 -19 14 -12
15 7 0 10 5 7 10 -5 8 -11 8 -20 0 -9 -7 -16 -6 -26 7 -9 11 -10 14 -1 9 20
-12 14 12 -8 27 -11 8 -17 17 -12 21 4 4 3 7 -3 6 -21 -5 -36 0 -30 10 6 9 -8
14 -28 11 -4 0 -6 2 -6 6 3 20 -2 34 -11 28 -5 -3 -10 1 -10 10 0 9 -4 13 -10
10 -5 -3 -10 1 -10 10 0 11 -5 15 -14 12 -10 -4 -13 -1 -9 9 3 7 0 14 -7 14
-6 0 -8 5 -4 13 6 8 3 8 -9 -1 -14 -12 -16 -11 -12 6 2 12 -3 23 -11 26 -10 4
-12 2 -8 -6 5 -7 3 -8 -5 -4 -7 5 -10 15 -7 23 3 8 1 11 -4 8 -6 -3 -10 -1
-10 4 0 6 -7 11 -16 11 -11 0 -14 6 -8 22 6 20 5 21 -9 10 -13 -11 -16 -10
-22 8 -4 11 -11 17 -17 14 -7 -5 -9 -1 -5 9 5 13 1 17 -14 17 -15 0 -19 5 -15
16 3 8 2 12 -4 9 -6 -3 -10 -1 -10 4 0 6 -8 11 -17 11 -15 0 -16 2 -3 10 10 7
11 10 3 11 -7 1 -17 2 -22 3 -6 0 -16 7 -23 15 -8 9 -8 11 -1 7 6 -3 15 -1 19
6 4 7 4 10 -1 6 -11 -11 -47 11 -39 24 4 7 3 8 -4 4 -7 -4 -12 -2 -12 4 0 7
-6 10 -13 7 -10 -4 -13 2 -10 21 3 24 2 25 -7 7 -9 -18 -10 -17 -7 8 3 21 1
25 -8 17 -9 -8 -15 -7 -18 2 -3 7 -6 9 -7 3z m70 -1414 c4 -8 13 -11 19 -7 7
5 8 1 4 -10 -5 -14 -3 -16 11 -11 10 4 15 3 11 -3 -3 -6 -1 -10 6 -10 9 0 9
-3 0 -14 -10 -12 -8 -13 9 -9 12 3 20 1 18 -5 -2 -5 2 -11 7 -11 6 -1 18 -16
28 -34 10 -18 16 -24 13 -14 -3 9 0 17 5 17 7 0 9 -11 7 -25 -3 -13 -2 -22 3
-20 4 3 15 2 24 -1 13 -5 14 -8 3 -15 -10 -7 -9 -9 3 -9 9 0 20 -7 23 -16 3
-9 13 -14 21 -10 8 3 17 0 21 -6 4 -7 3 -8 -4 -4 -7 4 -12 1 -12 -8 0 -9 3
-15 8 -15 19 3 33 -2 27 -11 -3 -5 -1 -10 5 -10 6 0 8 -5 5 -10 -4 -6 -3 -10
2 -9 20 3 34 -2 28 -11 -3 -5 1 -10 9 -10 9 0 16 -7 16 -16 0 -9 5 -12 13 -8
8 5 7 2 -2 -9 -12 -15 -12 -17 1 -12 9 4 18 -1 22 -10 3 -10 13 -15 21 -12 10
4 12 1 8 -10 -5 -13 -2 -15 12 -10 15 6 16 5 6 -7 -9 -11 -9 -16 0 -22 8 -4 9
-3 5 4 -4 7 -3 12 2 12 14 0 23 -28 11 -36 -7 -4 -6 -10 1 -19 8 -10 6 -15
-10 -20 -11 -3 -18 -10 -15 -15 3 -5 -4 -11 -15 -15 -18 -6 -24 -16 -22 -36 1
-4 -6 -6 -16 -5 -9 0 -16 -5 -14 -12 1 -6 -4 -11 -10 -10 -7 2 -12 -3 -10 -9
1 -7 -5 -13 -14 -13 -8 0 -12 -4 -9 -10 3 -5 2 -10 -3 -10 -18 0 -54 -39 -46
-51 4 -8 3 -9 -5 -5 -12 8 -44 -18 -34 -28 6 -6 -13 -10 -31 -7 -5 1 -6 -4 -4
-11 3 -7 -4 -21 -14 -30 -10 -10 -18 -15 -18 -12 0 3 -7 -2 -16 -10 -8 -9 -12
-21 -8 -27 4 -8 3 -9 -5 -5 -12 8 -51 -28 -51 -46 0 -5 -4 -6 -10 -3 -5 3 -10
-1 -10 -10 0 -9 -4 -14 -8 -11 -10 6 -58 -45 -54 -57 1 -4 -11 -15 -28 -25
-16 -11 -27 -21 -24 -24 3 -4 -4 -9 -15 -13 -19 -6 -25 -16 -23 -36 1 -4 -6
-6 -16 -5 -9 0 -16 -5 -15 -11 2 -7 -4 -13 -13 -13 -10 0 -14 -6 -10 -15 3 -8
2 -14 -2 -14 -20 3 -31 -3 -37 -22 -4 -11 -9 -18 -13 -15 -3 3 -14 -8 -24 -25
-10 -16 -23 -27 -28 -24 -5 3 -15 -6 -22 -19 -7 -14 -17 -25 -23 -26 -5 -1 -9
-7 -9 -15 1 -8 -1 -14 -5 -13 -20 2 -30 -4 -36 -23 -4 -11 -9 -18 -13 -15 -3
3 -13 -8 -24 -24 -10 -17 -21 -29 -25 -28 -12 4 -63 -44 -57 -54 3 -4 -2 -8
-11 -8 -9 0 -13 -4 -10 -10 3 -5 2 -10 -3 -10 -18 0 -54 -39 -46 -51 4 -8 3
-9 -5 -5 -6 4 -18 0 -27 -8 -8 -9 -12 -16 -7 -16 4 0 -7 -9 -25 -20 -18 -11
-30 -25 -27 -30 3 -6 -1 -10 -10 -10 -9 0 -13 -4 -10 -10 3 -5 2 -10 -4 -10
-14 0 -91 -77 -84 -84 4 -3 -5 -6 -18 -6 -13 0 -19 -4 -14 -8 6 -4 2 -15 -12
-29 -13 -12 -23 -20 -23 -17 0 3 -7 -2 -16 -10 -8 -9 -12 -21 -8 -27 4 -8 3
-9 -5 -5 -12 8 -51 -28 -51 -46 0 -5 -4 -6 -10 -3 -5 3 -10 -1 -10 -10 0 -9
-4 -14 -8 -11 -10 6 -58 -45 -54 -57 1 -4 -11 -15 -28 -25 -16 -11 -27 -21
-24 -24 3 -4 -4 -9 -15 -13 -19 -6 -25 -16 -23 -36 1 -4 -5 -6 -13 -5 -8 0
-14 -3 -15 -9 -1 -5 -12 -16 -26 -23 -13 -7 -22 -17 -19 -22 3 -5 -8 -18 -24
-28 -17 -10 -28 -21 -25 -24 3 -4 -4 -9 -15 -13 -19 -6 -25 -16 -23 -36 1 -4
-6 -6 -16 -5 -9 0 -16 -5 -14 -12 1 -6 -4 -11 -10 -10 -7 2 -12 -3 -10 -9 1
-7 -5 -13 -14 -13 -8 0 -12 -4 -9 -10 3 -5 2 -10 -4 -10 -14 0 -91 -77 -84
-84 4 -3 -5 -6 -18 -6 -15 0 -20 -3 -12 -8 9 -6 3 -13 -17 -26 -17 -9 -28 -21
-25 -27 3 -5 -8 -17 -24 -27 -17 -10 -28 -21 -25 -24 3 -4 -4 -9 -15 -13 -19
-6 -25 -16 -23 -36 1 -4 -6 -6 -16 -5 -9 0 -16 -5 -14 -12 1 -6 -4 -11 -10
-10 -7 2 -12 -3 -10 -9 1 -7 -5 -13 -14 -13 -8 0 -12 -4 -9 -10 3 -5 2 -10 -3
-10 -18 0 -54 -39 -46 -51 4 -8 3 -9 -5 -5 -12 8 -44 -18 -34 -28 6 -6 -13
-10 -31 -7 -5 1 -6 -4 -4 -11 3 -7 -4 -21 -14 -30 -10 -10 -18 -15 -18 -12 0
3 -7 -2 -16 -10 -8 -9 -12 -21 -8 -27 4 -8 3 -9 -5 -5 -12 8 -51 -28 -51 -46
0 -5 -4 -6 -10 -3 -5 3 -10 -1 -10 -10 0 -9 -4 -14 -8 -11 -10 6 -58 -45 -54
-57 1 -4 -11 -15 -28 -25 -16 -11 -27 -21 -24 -24 3 -4 -4 -9 -15 -13 -19 -6
-25 -16 -23 -36 1 -4 -4 -6 -11 -5 -7 0 -13 -3 -15 -9 -2 -5 -14 -16 -28 -23
-13 -7 -22 -17 -19 -22 3 -5 -8 -18 -24 -28 -17 -10 -28 -21 -25 -24 3 -4 -4
-9 -15 -13 -19 -6 -25 -16 -23 -36 1 -4 -6 -6 -16 -5 -9 0 -16 -5 -15 -11 2
-7 -3 -12 -10 -10 -6 1 -11 -4 -10 -10 2 -7 -4 -13 -13 -13 -8 0 -12 -4 -9
-10 3 -5 2 -10 -4 -10 -14 0 -91 -77 -84 -84 4 -3 -5 -6 -18 -7 -13 0 -19 -3
-12 -6 10 -3 10 -7 0 -18 -7 -7 -15 -11 -19 -8 -5 2 -8 -4 -8 -13 0 -10 -3
-15 -6 -11 -7 7 -84 -70 -84 -84 0 -6 -4 -7 -10 -4 -5 3 -10 -1 -10 -10 0 -9
-4 -14 -8 -11 -10 6 -58 -45 -54 -57 1 -4 -11 -15 -28 -25 -16 -11 -27 -21
-24 -24 3 -4 -4 -9 -15 -13 -19 -6 -25 -16 -23 -36 1 -4 -6 -6 -16 -5 -9 0
-16 -5 -15 -11 2 -7 -4 -13 -13 -13 -10 0 -14 -6 -10 -15 3 -8 2 -14 -2 -14
-20 3 -31 -3 -37 -22 -4 -11 -9 -18 -13 -15 -3 3 -14 -8 -24 -25 -10 -16 -23
-27 -28 -24 -5 3 -16 -7 -24 -22 -8 -15 -18 -28 -23 -28 -4 0 -7 -5 -7 -12 1
-7 -1 -12 -5 -11 -20 2 -30 -4 -36 -23 -4 -11 -9 -18 -13 -15 -3 3 -13 -8 -24
-24 -10 -17 -21 -29 -25 -28 -12 4 -63 -44 -57 -54 3 -4 -2 -8 -11 -8 -9 0
-13 -4 -10 -10 3 -6 2 -10 -3 -10 -18 0 -54 -39 -46 -51 4 -8 3 -9 -4 -5 -7 4
-22 -2 -34 -13 -12 -12 -18 -21 -12 -21 5 0 -2 -6 -16 -13 -14 -8 -24 -19 -23
-25 2 -7 -4 -12 -13 -12 -8 0 -12 -5 -9 -10 3 -5 2 -10 -4 -10 -16 0 -51 -42
-44 -53 3 -6 1 -7 -6 -3 -7 5 -19 0 -29 -11 -17 -19 -18 -18 -59 23 -23 23
-39 45 -36 48 4 3 -4 6 -16 6 -12 0 -19 4 -16 10 3 6 1 10 -4 10 -6 0 -11 7
-11 15 0 13 -11 19 -31 17 -4 -1 -10 10 -13 23 -6 25 -24 29 -39 10 -4 -5 -5
2 -1 18 5 22 3 26 -10 21 -9 -3 -16 -2 -16 3 0 17 -37 53 -45 45 -5 -4 -5 1
-2 10 3 10 3 17 -1 15 -4 -1 -21 13 -38 31 -17 17 -37 32 -45 32 -11 0 -11 2
1 10 13 9 13 10 0 11 -8 1 -19 0 -25 -1 -5 -1 -7 1 -3 5 7 7 -33 54 -42 50 -3
-2 -14 9 -25 24 -18 25 -18 25 0 11 17 -13 18 -13 13 0 -3 8 4 24 15 35 11 11
16 14 12 6 -5 -9 -4 -12 3 -7 7 4 12 14 12 22 0 9 5 12 12 8 8 -5 9 -2 4 11
-6 15 -4 16 10 4 14 -11 15 -10 12 7 -2 13 2 19 15 18 10 -1 16 1 13 4 -3 3 3
12 14 19 11 8 18 19 15 24 -4 5 0 9 8 9 8 0 17 7 21 15 3 8 13 15 22 15 10 0
14 5 10 15 -4 10 3 19 18 25 13 5 28 15 32 22 5 9 2 8 -12 -2 -18 -14 -18 -14
-5 3 7 9 22 17 33 17 16 0 18 3 9 13 -13 16 -5 28 15 20 8 -3 14 1 14 10 0 8
8 21 18 28 16 13 16 13 2 -5 -10 -14 -11 -17 -2 -12 7 4 17 19 22 32 6 15 15
22 25 18 10 -4 15 0 15 10 0 9 7 19 15 22 8 4 15 11 15 18 0 6 10 16 23 21 12
6 21 18 21 27 -1 10 2 16 6 13 5 -3 11 -1 15 5 4 6 11 8 16 4 5 -3 9 -2 8 3
-3 19 2 34 10 29 5 -3 11 4 14 15 4 15 11 20 22 15 11 -4 15 -1 13 12 -2 9 4
18 12 18 32 3 34 5 20 14 -11 7 -11 10 -2 10 7 0 10 4 7 10 -3 6 1 7 9 4 10
-4 16 -1 16 9 0 8 8 21 18 28 16 13 16 13 2 -5 -10 -14 -11 -17 -2 -12 7 4 17
19 22 32 6 15 15 22 25 18 10 -4 15 0 15 10 0 9 7 19 15 22 8 4 15 12 15 20 0
8 6 13 13 11 6 -1 11 4 10 10 -2 7 3 12 10 10 6 -1 11 6 11 15 -1 10 1 17 5
16 20 -2 30 4 36 22 4 11 10 18 15 15 4 -3 10 5 13 16 4 15 11 20 22 15 11 -4
15 -1 13 12 -2 11 3 17 15 16 11 -1 16 4 15 14 -2 9 4 17 12 17 8 0 14 8 14
17 -1 10 1 17 5 16 20 -2 30 4 36 22 4 11 10 18 15 15 4 -3 10 5 13 16 4 15
11 20 22 15 11 -4 15 -1 13 12 -2 11 3 17 14 16 10 -1 23 10 30 27 7 16 18 29
24 29 7 0 14 7 18 15 3 8 13 15 22 15 10 0 14 5 10 15 -4 10 3 19 18 25 13 5
28 15 32 22 5 9 2 8 -12 -2 -18 -14 -18 -14 -5 3 7 9 22 17 33 17 16 0 18 3 9
13 -13 16 -5 28 15 20 8 -3 14 1 14 10 0 8 8 21 18 28 16 13 16 13 2 -5 -10
-14 -11 -17 -2 -12 7 4 17 19 22 32 5 13 14 24 20 24 6 0 8 -5 4 -12 -4 -7 -3
-8 4 -4 7 4 12 14 12 22 0 8 7 17 15 20 8 4 15 12 15 19 0 7 9 15 20 18 11 3
24 16 29 30 5 14 16 29 23 33 9 5 8 2 -2 -11 -10 -13 -11 -16 -2 -11 7 4 17
19 22 32 6 15 15 22 25 18 10 -4 15 0 15 10 0 9 7 19 15 22 8 4 15 12 15 20 0
8 7 14 15 14 9 0 18 7 21 15 4 8 10 13 14 10 4 -3 7 3 6 13 -1 12 5 16 18 14
17 -3 18 -2 7 12 -12 14 -11 16 4 10 13 -5 16 -4 11 4 -4 7 -1 12 9 12 9 0 13
5 10 10 -6 9 8 14 28 11 5 -1 6 3 3 8 -4 5 -2 12 4 16 6 4 8 10 5 15 -3 4 3 7
12 6 10 0 18 6 18 14 0 8 8 14 17 12 10 -1 15 4 14 15 -1 12 5 17 16 15 13 -2
16 2 12 13 -5 11 0 18 15 22 11 3 18 9 15 14 -5 8 10 13 29 10 5 -1 6 3 3 8
-4 5 -2 12 4 16 6 4 8 11 5 16 -3 5 1 6 9 3 11 -4 16 0 16 10 0 9 6 15 13 14
6 -2 11 5 11 14 -1 10 2 16 6 13 5 -3 11 -1 15 5 4 6 11 8 16 4 5 -3 9 -2 8 3
-3 19 2 34 10 29 5 -3 11 4 14 15 4 15 11 20 22 15 11 -4 15 -1 13 12 -2 10 3
17 12 17 16 0 47 35 42 48 -1 4 4 7 12 7 8 0 16 7 20 15 3 8 13 15 22 15 10 0
14 5 10 15 -4 10 3 19 18 25 13 5 28 15 32 22 5 9 2 8 -12 -2 -18 -14 -18 -14
-5 3 7 9 22 17 33 17 16 0 18 3 9 13 -13 16 -5 28 15 20 8 -3 14 1 14 10 0 8
8 21 18 28 16 13 16 13 2 -5 -10 -14 -11 -17 -2 -12 7 4 17 19 22 32 6 15 15
22 25 18 10 -4 15 0 15 10 0 9 7 19 15 22 8 4 15 12 15 20 0 8 6 13 13 12 6
-2 11 3 9 10 -1 6 4 11 10 10 7 -2 12 5 12 14 -1 10 2 16 6 13 5 -3 11 -1 15
5 4 6 11 8 16 4 5 -3 9 -2 8 3 -3 19 2 34 10 29 5 -3 11 4 14 15 4 15 11 20
22 15 11 -4 15 -1 13 12 -2 11 3 17 15 16 11 -1 16 4 15 14 -2 9 4 17 12 17 8
0 14 8 14 17 -1 10 1 17 5 16 20 -2 30 4 36 22 4 11 10 18 15 15 4 -3 10 5 13
16 4 15 11 20 22 15 11 -4 15 -1 13 12 -2 11 3 17 14 16 10 -1 23 10 30 27 7
16 18 29 24 29 7 0 14 7 18 15 3 8 13 15 22 15 10 0 14 5 10 15 -4 10 3 19 18
25 13 5 28 15 32 22 5 9 2 8 -12 -2 -18 -14 -18 -14 -5 3 7 9 22 17 33 17 16
0 18 3 9 13 -13 16 -5 28 15 20 8 -3 14 1 14 10 0 8 8 21 18 28 16 13 16 13 2
-5 -10 -14 -11 -17 -2 -12 7 4 17 19 22 32 6 15 15 22 25 18 10 -4 15 0 15 10
0 9 7 19 15 22 8 4 15 12 15 20 0 8 6 13 13 11 6 -1 11 4 10 10 -2 7 3 12 10
10 6 -1 11 6 11 15 -1 10 1 17 5 16 20 -2 30 4 36 22 4 11 10 18 15 15 4 -3
10 5 13 16 4 15 11 20 22 15 11 -4 15 -1 13 12 -2 9 4 18 12 18 32 3 34 5 20
14 -11 7 -11 10 -2 10 7 0 10 4 7 10 -3 6 1 7 9 4 10 -4 16 -1 16 9 0 8 8 21
18 28 16 13 16 13 2 -5 -10 -14 -11 -17 -2 -12 7 4 17 19 22 32 6 15 15 22 25
18 10 -4 15 0 15 10 0 9 7 19 15 22 8 4 15 12 15 20 0 8 6 13 13 12 6 -2 11 3
9 10 -1 6 4 11 10 10 7 -2 12 5 12 14 -1 10 1 17 5 16 20 -2 30 4 36 22 4 11
9 18 13 16 4 -2 12 2 19 9 10 11 10 15 0 19 -7 4 -2 4 11 2 17 -3 22 0 20 12
-2 11 3 16 15 16 11 -1 16 4 15 14 -2 9 4 17 12 17 8 0 14 8 14 17 -1 10 1 17
5 16 20 -2 30 4 36 22 4 11 9 18 13 16 4 -2 12 2 19 9 10 11 10 15 0 19 -7 4
-2 4 11 2 17 -3 22 0 20 12 -2 10 4 17 12 17 16 0 47 35 42 48 -1 4 4 7 12 7
8 0 16 7 20 15 3 8 13 15 22 15 10 0 14 5 10 15 -5 14 6 20 28 16 5 -1 4 4 -2
12 -9 11 -8 13 9 12 11 -1 24 -7 29 -14z m-1596 -136 c-4 -8 -11 -15 -16 -15
-6 0 -5 6 2 15 7 8 14 15 16 15 2 0 1 -7 -2 -15z m-1524 -1530 c0 -2 -10 -10
-22 -16 -21 -11 -22 -11 -9 4 13 16 31 23 31 12z m-110 -105 c0 -5 -5 -10 -11
-10 -5 0 -7 5 -4 10 3 6 8 10 11 10 2 0 4 -4 4 -10z m-1940 -2440 c0 -5 -5
-10 -11 -10 -5 0 -7 5 -4 10 3 6 8 10 11 10 2 0 4 -4 4 -10z m2430 -824 c0 -2
-8 -10 -17 -17 -16 -13 -17 -12 -4 4 13 16 21 21 21 13z m-2692 -350 c-7 -8
-15 -12 -17 -11 -5 6 10 25 20 25 5 0 4 -6 -3 -14z m491 -469 c-2 -1 -11 -8
-21 -15 -12 -10 -18 -10 -24 -1 -4 7 -3 9 4 5 6 -3 13 -2 17 4 3 5 11 10 17
10 6 0 9 -1 7 -3z"/>
<path d="M6330 5879 c0 -5 5 -7 10 -4 6 3 10 8 10 11 0 2 -4 4 -10 4 -5 0 -10
-5 -10 -11z"/>
<path d="M6110 5659 c0 -5 5 -7 10 -4 6 3 10 8 10 11 0 2 -4 4 -10 4 -5 0 -10
-5 -10 -11z"/>
<path d="M5950 5499 c0 -5 5 -7 10 -4 6 3 10 8 10 11 0 2 -4 4 -10 4 -5 0 -10
-5 -10 -11z"/>
<path d="M5370 4919 c0 -5 5 -7 10 -4 6 3 10 8 10 11 0 2 -4 4 -10 4 -5 0 -10
-5 -10 -11z"/>
<path d="M5210 4759 c0 -5 5 -7 10 -4 6 3 10 8 10 11 0 2 -4 4 -10 4 -5 0 -10
-5 -10 -11z"/>
<path d="M4890 4439 c0 -5 5 -7 10 -4 6 3 10 8 10 11 0 2 -4 4 -10 4 -5 0 -10
-5 -10 -11z"/>
<path d="M4410 3959 c0 -5 5 -7 10 -4 6 3 10 8 10 11 0 2 -4 4 -10 4 -5 0 -10
-5 -10 -11z"/>
<path d="M4250 3799 c0 -5 5 -7 10 -4 6 3 10 8 10 11 0 2 -4 4 -10 4 -5 0 -10
-5 -10 -11z"/>
<path d="M3770 3319 c0 -5 5 -7 10 -4 6 3 10 8 10 11 0 2 -4 4 -10 4 -5 0 -10
-5 -10 -11z"/>
<path d="M3550 3099 c0 -5 5 -7 10 -4 6 3 10 8 10 11 0 2 -4 4 -10 4 -5 0 -10
-5 -10 -11z"/>
<path d="M3390 2939 c0 -5 5 -7 10 -4 6 3 10 8 10 11 0 2 -4 4 -10 4 -5 0 -10
-5 -10 -11z"/>
<path d="M5230 7129 c0 -5 5 -7 10 -4 6 3 10 8 10 11 0 2 -4 4 -10 4 -5 0 -10
-5 -10 -11z"/>
<path d="M5030 6939 c0 -5 5 -7 10 -4 6 3 10 8 10 11 0 2 -4 4 -10 4 -5 0 -10
-5 -10 -11z"/>
<path d="M8020 6145 c-7 -9 -8 -15 -2 -15 5 0 12 7 16 15 3 8 4 15 2 15 -2 0
-9 -7 -16 -15z"/>
<path d="M3276 5178 c3 -5 10 -6 15 -3 13 9 11 12 -6 12 -8 0 -12 -4 -9 -9z"/>
<path d="M2716 4613 c-6 -14 -5 -15 5 -6 7 7 10 15 7 18 -3 3 -9 -2 -12 -12z"/>
<path d="M6425 4540 c-3 -6 1 -7 9 -4 18 7 21 14 7 14 -6 0 -13 -4 -16 -10z"/>
<path d="M2561 4468 c-14 -23 -14 -23 8 -4 22 20 25 26 13 26 -4 0 -13 -10
-21 -22z"/>
<path d="M2463 4365 c0 -8 4 -12 9 -9 5 3 6 10 3 15 -9 13 -12 11 -12 -6z"/>
<path d="M1926 3828 c3 -5 10 -6 15 -3 13 9 11 12 -6 12 -8 0 -12 -4 -9 -9z"/>
<path d="M3009 1293 c-13 -16 -12 -17 4 -4 16 13 21 21 13 21 -2 0 -10 -8 -17
-17z"/>
<path d="M2005 1069 c-4 -6 -5 -12 -2 -15 2 -3 7 2 10 11 7 17 1 20 -8 4z"/>
</g>
</svg>
